<?xml version="1.0" encoding="utf-8"?>
<!-- Generator: Adobe Illustrator 26.4.1, SVG Export Plug-In . SVG Version: 6.00 Build 0)  -->
<svg version="1.1" id="圖層_1" focusable="false" xmlns="http://www.w3.org/2000/svg"
	xmlns:xlink="http://www.w3.org/1999/xlink" x="0px" y="0px" viewBox="0 0 24 24"
	style="enable-background:new 0 0 24 24;" xml:space="preserve">
	<path d="M11.6,16.1c0-2.8,2.6-5.2,6-5.2c0.8,0,1.6,0.2,2.3,0.4c0-4-4-7.4-8.8-7.4c-5,0-9,3.4-9,7.5c0,2.6,1.7,5.1,4.2,6.3v2.8
	c0,0.3,0.2,0.5,0.6,0.3l3.6-1.8h0.9c0.4,0,0.8,0,1.2-0.1C11.9,18.1,11.6,17.1,11.6,16.1z M17.6,12.5c-2.5,0-4.5,1.6-4.5,3.7
	s2,3.8,4.5,3.8h0.3l0.6,0.2l1,0.6c0.3,0,0.6,0,0.6-0.4v-1.1c1.2-0.6,2-1.8,2-3.2C22,14.1,20,12.5,17.6,12.5
	C17.5,12.5,17.6,12.5,17.6,12.5z" />
</svg>