<?xml version="1.0" encoding="utf-8"?>
<!-- Generator: Adobe Illustrator 26.4.1, SVG Export Plug-In . SVG Version: 6.00 Build 0)  -->
<svg version="1.1" id="圖層_1" focusable="false" xmlns="http://www.w3.org/2000/svg"
	xmlns:xlink="http://www.w3.org/1999/xlink" x="0px" y="0px" viewBox="0 0 24 24"
	style="enable-background:new 0 0 24 24;" xml:space="preserve">
	<path d="M15.4,12l4.8,4.7c1.1,1,1.1,2.4,0,3.5c-0.8,1.1-2.4,1.1-3.4,0L12,15.5l-4.7,4.6c-1,1.1-2.4,1.1-3.5,0
	c-1.1-0.8-1.1-2.4,0-3.4L8.5,12L3.9,7.3c-1.1-1-1.1-2.4,0-3.4C4.5,3,5.7,2.7,6.6,3.3C6.8,3.5,7,3.7,7.1,3.9L12,8.4l4.7-4.6
	c1-1.1,2.4-1.1,3.4,0c1.1,0.8,1.1,2.4,0,3.4L15.4,12z" />
</svg>