<?xml version="1.0" encoding="utf-8"?>
<!-- Generator: Adobe Illustrator 26.4.1, SVG Export Plug-In . SVG Version: 6.00 Build 0)  -->
<svg version="1.1" id="圖層_1" focusable="false" xmlns="http://www.w3.org/2000/svg"
	xmlns:xlink="http://www.w3.org/1999/xlink" x="0px" y="0px" viewBox="0 0 24 24"
	style="enable-background:new 0 0 24 24;" xml:space="preserve">
	<path d="M21.1,9.1l-5.5-0.7c-0.1,0-0.4-0.2-0.5-0.4l-2.3-5.2c-0.5-1-1.2-1-1.6,0L8.9,8c0,0.2-0.2,0.4-0.5,0.4L2.9,9
	c-1,0-1.2,0.8-0.5,1.6l4.1,3.8c0.2,0.2,0.2,0.5,0.2,0.7l-1.1,5.7c-0.2,1,0.4,1.5,1.3,0.8l4.7-2.8h0.8l4.7,2.9c0.8,0.6,1.6,0,1.2-1
	l-1-5.8c0,0,0-0.4,0.2-0.6l3.9-3.9C22.2,9.8,22.2,9,21.1,9.1L21.1,9.1L21.1,9.1z" />
</svg>