<?xml version="1.0" encoding="utf-8"?>
<!-- Generator: Adobe Illustrator 26.4.1, SVG Export Plug-In . SVG Version: 6.00 Build 0)  -->
<svg version="1.1" id="圖層_1" focusable="false" xmlns="http://www.w3.org/2000/svg"
	xmlns:xlink="http://www.w3.org/1999/xlink" x="0px" y="0px" viewBox="0 0 24 24"
	style="enable-background:new 0 0 24 24;" xml:space="preserve">
	<path d="M8.2,10.1C8.2,10.1,8.2,10.1,8.2,10.1C7.5,9.2,7.3,7.6,7.3,7c0-0.1-0.1-0.2-0.2-0.1c-2.1,1.2-4,3.9-4,6.6
	c0,4.6,3.2,8.5,8.7,8.5c5.2,0,8.7-4,8.7-8.5c0-5.9-4.2-9.8-7.9-11.5c-0.1,0-0.1,0-0.2,0.1c0,0,0,0.1,0,0.1
	C12.8,5.3,12.1,8.8,8.2,10.1z" />
</svg>